<svg width="171" height="72" viewBox="0 0 171 72" fill="none" xmlns="http://www.w3.org/2000/svg">
<g clip-path="url(#clip0_2004_2297)">
<path d="M26.0923 67.168C24.8817 68.4824 23.4841 69.5475 21.8891 70.358C20.294 71.1737 18.6055 71.6829 16.8182 71.8959C15.4466 72.057 14.1061 72.0362 12.7968 71.8284C11.4876 71.6206 10.2354 71.2569 9.05085 70.7373C7.86626 70.2178 6.7648 69.5527 5.74128 68.7474C4.71776 67.9421 3.81892 67.0225 3.0344 65.9886C2.24987 64.9547 1.61081 63.8272 1.10165 62.6011C0.597681 61.3749 0.265165 60.076 0.104103 58.7044C-0.0569593 57.3328 -0.0361771 55.9871 0.171645 54.6727C0.379467 53.353 0.743156 52.1009 1.26271 50.9163C1.78227 49.7317 2.4473 48.6302 3.25261 47.6067C4.05792 46.5832 4.97753 45.6843 6.01145 44.8998C7.04536 44.1205 8.1728 43.4762 9.39895 42.9671C10.6251 42.4631 11.924 42.1306 13.2956 41.9695C15.0829 41.7617 16.8442 41.8604 18.5847 42.2761C20.32 42.6917 21.9306 43.4035 23.4114 44.4166L20.9383 49.8148C19.9823 48.9991 18.9016 48.4172 17.6859 48.0639C16.4701 47.7106 15.2336 47.6067 13.971 47.7522C12.7085 47.8977 11.5291 48.2821 10.4692 48.9004C9.40934 49.5135 8.51571 50.2824 7.77794 51.2072C7.04017 52.132 6.49983 53.1815 6.14653 54.3609C5.79324 55.5403 5.69452 56.7613 5.84 58.0238C5.98547 59.2863 6.36994 60.4449 6.98302 61.4944C7.59609 62.5439 8.37023 63.4376 9.30023 64.1753C10.2302 64.9131 11.2849 65.4534 12.4539 65.8067C13.6281 66.16 14.8491 66.2587 16.1272 66.1081C17.4053 65.9574 18.5691 65.5729 19.6706 64.9443C20.7668 64.3156 21.6864 63.4999 22.4242 62.4868L26.0819 67.168H26.0923Z" fill="#FFFAF3"/>
<path d="M45.4509 54.9847C45.4509 56.6057 45.16 58.1228 44.5781 59.5204C43.9962 60.9232 43.2064 62.1338 42.2037 63.1521C41.201 64.1757 40.0268 64.981 38.6811 65.5681C37.3355 66.1552 35.8911 66.4513 34.348 66.4513C32.8049 66.4513 31.3814 66.1552 30.0357 65.5681C28.6901 64.981 27.5107 64.1757 26.5027 63.1521C25.4948 62.1286 24.6999 60.918 24.118 59.5204C23.5361 58.1176 23.2451 56.6057 23.2451 54.9847C23.2451 53.3637 23.5361 51.805 24.118 50.397C24.6999 48.989 25.4948 47.7785 26.5027 46.755C27.5107 45.7314 28.6901 44.9313 30.0357 44.3494C31.3814 43.7675 32.8205 43.4766 34.348 43.4766C35.8755 43.4766 37.3355 43.7519 38.6811 44.2975C40.0268 44.843 41.201 45.6223 42.2037 46.6303C43.2064 47.6382 43.9962 48.8488 44.5781 50.262C45.16 51.6751 45.4509 53.2494 45.4509 54.9795V54.9847ZM39.8709 54.9847C39.8709 54.0911 39.7254 53.2858 39.4345 52.5584C39.1435 51.8362 38.7487 51.2127 38.2447 50.6932C37.7459 50.1736 37.1588 49.7736 36.4886 49.4982C35.8184 49.2228 35.1066 49.0826 34.348 49.0826C33.5895 49.0826 32.8777 49.2228 32.2074 49.4982C31.5372 49.7736 30.9553 50.1736 30.4617 50.6932C29.9682 51.2127 29.5785 51.8362 29.2927 52.5584C29.007 53.2806 28.8667 54.0911 28.8667 54.9847C28.8667 55.8264 29.007 56.6005 29.2927 57.3175C29.5785 58.0345 29.963 58.658 30.4617 59.1827C30.9553 59.7127 31.5372 60.1283 32.2074 60.4297C32.8777 60.731 33.5895 60.8869 34.348 60.8869C35.1066 60.8869 35.8184 60.7466 36.4886 60.4608C37.1588 60.1751 37.7459 59.7802 38.2447 59.2659C38.7435 58.7515 39.1383 58.128 39.4345 57.4007C39.7254 56.6681 39.8709 55.8628 39.8709 54.9847Z" fill="#FFFAF3"/>
<path d="M65.3655 54.9847C65.3655 56.6057 65.0745 58.1228 64.4926 59.5204C63.9107 60.9232 63.121 62.1338 62.1182 63.1521C61.1155 64.1757 59.9413 64.981 58.5957 65.5681C57.25 66.1552 55.8057 66.4513 54.2626 66.4513C52.7195 66.4513 51.2959 66.1552 49.9503 65.5681C48.6046 64.981 47.4252 64.1757 46.4173 63.1521C45.4093 62.1286 44.6144 60.918 44.0325 59.5204C43.4506 58.1176 43.1597 56.6057 43.1597 54.9847C43.1597 53.3637 43.4506 51.805 44.0325 50.397C44.6144 48.989 45.4093 47.7785 46.4173 46.755C47.4252 45.7314 48.6046 44.9313 49.9503 44.3494C51.2959 43.7675 52.7351 43.4766 54.2626 43.4766C55.7901 43.4766 57.25 43.7519 58.5957 44.2975C59.9413 44.843 61.1155 45.6223 62.1182 46.6303C63.121 47.6382 63.9107 48.8488 64.4926 50.262C65.0745 51.6751 65.3655 53.2494 65.3655 54.9795V54.9847ZM59.7854 54.9847C59.7854 54.0911 59.64 53.2858 59.349 52.5584C59.0581 51.8362 58.6632 51.2127 58.1592 50.6932C57.6605 50.1736 57.0734 49.7736 56.4031 49.4982C55.7329 49.2228 55.0211 49.0826 54.2626 49.0826C53.504 49.0826 52.7922 49.2228 52.122 49.4982C51.4518 49.7736 50.8699 50.1736 50.3763 50.6932C49.8827 51.2127 49.493 51.8362 49.2073 52.5584C48.9215 53.2806 48.7813 54.0911 48.7813 54.9847C48.7813 55.8264 48.9215 56.6005 49.2073 57.3175C49.493 58.0345 49.8775 58.658 50.3763 59.1827C50.8699 59.7127 51.4518 60.1283 52.122 60.4297C52.7922 60.731 53.504 60.8869 54.2626 60.8869C55.0211 60.8869 55.7329 60.7466 56.4031 60.4608C57.0734 60.1751 57.6605 59.7802 58.1592 59.2659C58.658 58.7515 59.0529 58.128 59.349 57.4007C59.64 56.6681 59.7854 55.8628 59.7854 54.9847Z" fill="#FFFAF3"/>
<path d="M72.0366 66.0457H66.4565V35.6621H72.0366V54.8233L80.2975 44.3491H86.6724L79.4662 53.3997L86.6724 66.0457H80.2975L75.8917 58.1485L72.0366 63.2609V66.0405V66.0457Z" fill="#FFFAF3"/>
<path d="M92.9021 38.4055C92.9021 38.9198 92.8034 39.3978 92.6059 39.8446C92.4085 40.2915 92.1435 40.6811 91.8058 41.0136C91.4681 41.3462 91.0733 41.6111 90.616 41.8034C90.164 42.0008 89.6808 42.0995 89.1665 42.0995C88.6521 42.0995 88.1689 42.0008 87.7169 41.8034C87.2649 41.6059 86.87 41.3462 86.5375 41.0136C86.205 40.6811 85.94 40.2915 85.7478 39.8446C85.5504 39.3978 85.4517 38.9198 85.4517 38.4055C85.4517 37.8911 85.5504 37.4287 85.7478 36.9767C85.9452 36.5247 86.205 36.1298 86.5375 35.7973C86.87 35.4648 87.2597 35.1998 87.7169 35.0076C88.1689 34.8101 88.6521 34.7114 89.1665 34.7114C89.6808 34.7114 90.164 34.8101 90.616 35.0076C91.0681 35.205 91.4629 35.47 91.8058 35.7973C92.1435 36.1298 92.4137 36.5195 92.6059 36.9767C92.8034 37.4287 92.9021 37.9067 92.9021 38.4055ZM91.9461 66.0458H86.3661V44.3076H91.9461V66.0458Z" fill="#FFFAF3"/>
<path d="M99.2147 66.0456H93.6763V44.3074H95.0167L96.8456 46.4168C97.7392 45.6063 98.7523 44.9776 99.8798 44.5412C101.007 44.0996 102.192 43.8813 103.423 43.8813C104.748 43.8813 106 44.1359 107.18 44.6399C108.359 45.1439 109.382 45.8453 110.266 46.7285C111.144 47.617 111.84 48.6509 112.344 49.8355C112.853 51.02 113.102 52.2826 113.102 53.623V66.0456H107.564V53.623C107.564 53.0567 107.455 52.5164 107.242 52.0072C107.024 51.498 106.728 51.0564 106.348 50.6771C105.969 50.2979 105.527 50.0017 105.029 49.7835C104.53 49.5653 103.995 49.4614 103.423 49.4614C102.852 49.4614 102.296 49.5705 101.781 49.7835C101.267 50.0017 100.82 50.2979 100.441 50.6771C100.062 51.0564 99.7655 51.498 99.5472 52.0072C99.329 52.5164 99.2251 53.0515 99.2251 53.623V66.0456H99.2147Z" fill="#FFFAF3"/>
<path d="M120.08 40.3537C120.08 40.9511 120.022 41.5902 119.908 42.2708C119.794 42.9566 119.612 43.6321 119.363 44.3023C119.113 44.9725 118.786 45.6116 118.381 46.2194C117.975 46.8273 117.487 47.3417 116.921 47.7625L114.728 46.2194C115.092 45.7882 115.372 45.3726 115.559 44.9829C115.747 44.5932 115.897 44.1984 116.006 43.8035C115.601 43.736 115.222 43.6009 114.868 43.3983C114.515 43.1956 114.214 42.941 113.964 42.6397C113.715 42.3332 113.512 41.9851 113.367 41.5954C113.216 41.2057 113.144 40.7901 113.144 40.3589C113.144 39.9016 113.237 39.46 113.419 39.0392C113.601 38.6183 113.85 38.2495 114.172 37.9325C114.494 37.6156 114.853 37.3662 115.269 37.1792C115.679 36.9973 116.126 36.9038 116.599 36.9038C117.071 36.9038 117.544 36.9973 117.97 37.1792C118.396 37.361 118.765 37.6104 119.077 37.9325C119.389 38.2495 119.633 38.6183 119.82 39.0392C120.002 39.46 120.095 39.8964 120.095 40.3589L120.08 40.3537Z" fill="#FFFAF3"/>
<path d="M144.946 54.418C144.946 56.0286 144.639 57.5405 144.031 58.9537C143.424 60.3669 142.592 61.5982 141.538 62.6477C140.483 63.6972 139.246 64.5233 137.833 65.1364C136.42 65.7443 134.908 66.0508 133.297 66.0508C131.687 66.0508 130.175 65.7443 128.762 65.1364C127.348 64.5285 126.117 63.6972 125.068 62.6477C124.018 61.5982 123.192 60.3669 122.579 58.9537C121.971 57.5405 121.665 56.0286 121.665 54.418V36.9453H127.468V54.418C127.468 55.2181 127.619 55.9662 127.925 56.6728C128.232 57.3742 128.647 57.9925 129.172 58.5173C129.697 59.042 130.32 59.4628 131.027 59.7642C131.734 60.0655 132.492 60.2214 133.292 60.2214C134.092 60.2214 134.846 60.0707 135.557 59.7642C136.269 59.4576 136.888 59.042 137.412 58.5173C137.937 57.9925 138.358 57.3742 138.659 56.6728C138.966 55.9714 139.116 55.2181 139.116 54.418V36.9453H144.941V54.418H144.946Z" fill="#FFFAF3"/>
<path d="M153.332 66.0459H147.507V36.9404H159.156C160.226 36.9404 161.255 37.0807 162.242 37.3561C163.229 37.6314 164.154 38.0263 165.011 38.5355C165.868 39.0446 166.653 39.6525 167.365 40.3643C168.077 41.0761 168.684 41.8606 169.194 42.7283C169.703 43.5959 170.092 44.5207 170.373 45.5079C170.648 46.4951 170.789 47.5238 170.789 48.5941C170.789 50.1891 170.482 51.6958 169.874 53.109C169.266 54.5222 168.435 55.7587 167.38 56.8134C166.326 57.8681 165.089 58.6994 163.676 59.3073C162.263 59.9152 160.756 60.2217 159.161 60.2217H153.337V66.0459H153.332ZM153.332 42.7698V54.4183H159.156C159.956 54.4183 160.704 54.2676 161.411 53.9611C162.112 53.6545 162.73 53.2389 163.255 52.7141C163.78 52.1894 164.201 51.5659 164.502 50.8593C164.803 50.1527 164.959 49.3942 164.959 48.5941C164.959 47.7939 164.809 47.0406 164.502 46.3288C164.195 45.617 163.78 44.9987 163.255 44.474C162.73 43.9492 162.112 43.5284 161.411 43.227C160.709 42.9205 159.956 42.7698 159.156 42.7698H153.332Z" fill="#FFFAF3"/>
<path d="M20.4292 22.9797C20.4292 22.9797 25.8793 25.3697 37.2992 13.3004C48.719 1.23114 53.2547 5.96429 55.3745 8.89458C57.4943 11.8197 57.4995 18.1531 53.7587 23.2135C54.2834 17.9089 54.5017 13.4303 53.2807 12.4951C53.7535 14.6876 53.2807 21.499 50.1686 23.0213C50.7089 17.6439 48.4852 14.5629 46.9109 13.8148C48.4852 16.6775 47.8929 23.1979 47.8929 23.1979C47.8929 23.1979 36.977 22.2939 27.5627 32.2226C38.25 26.6582 48.4748 25.7542 54.0652 28.3052C54.6004 32.0304 55.4265 35.2672 55.4265 35.2672C55.4265 35.2672 40.7386 31.5888 28.2225 42.8112C40.8269 36.3947 51.3168 37.4078 58.3152 38.7378C56.185 27.1881 56.1071 26.84 56.1071 26.84C56.1071 26.84 66.5294 9.76224 57.619 2.84696C48.7034 -4.06833 41.4192 2.84696 35.6574 10.7702C29.8955 18.6934 24.0661 22.9797 20.4292 22.9849V22.9797Z" fill="#F0633C"/>
<path d="M26.2533 17.01C26.2533 17.01 14.2723 15.0461 13.1293 25.5619C11.9863 36.0777 22.9697 34.8567 22.9697 34.8567L24.7777 42.2604C24.7777 42.2604 33.9115 34.7736 41.071 34.3475C41.071 34.3475 35.1221 33.2253 26.0299 38.1611C24.5387 32.446 24.3361 31.8069 24.3361 31.8069C24.3361 31.8069 18.4236 33.9891 15.9609 28.1077C13.4982 22.2263 18.4703 16.8229 26.2585 17.01H26.2533Z" fill="#F0633C"/>
</g>
<defs>
<clipPath id="clip0_2004_2297">
<rect width="170.783" height="72" fill="white"/>
</clipPath>
</defs>
</svg>
